<?xml version="1.0" encoding="UTF-8" standalone="no"?>
<!-- Created with Inkscape (http://www.inkscape.org/) -->

<svg
   version="1.1"
   id="svg1"
   width="553.61731"
   height="148.53372"
   viewBox="0 0 553.61731 148.53372"
   xmlns="http://www.w3.org/2000/svg"
   xmlns:svg="http://www.w3.org/2000/svg">
  <defs
     id="defs1" />
  <g
     id="layer1"
     style="display:inline;fill:#ffffff"
     transform="translate(-12.455753,-11.307636)">
    <path
       style="display:inline;fill:#ffffff"
       d="M 12.775739,132.96459 C 11.126778,121.85526 15.898174,107.79262 25.996262,94 56.208725,52.733863 54.996787,34.293241 21.157511,20.374511 15.682182,18.122406 15.612706,18.047183 19,18.038517 48.776258,17.962337 70.631767,49.964259 58.1434,75.35423 54.722529,82.309169 51.059422,86.364105 31.362302,105 c -9.630126,9.11128 -14.177778,16.21131 -16.702569,26.07692 l -1.369744,5.35226 z M 51.711637,27.987814 c -5.145525,-4.047471 -4.296682,-12.599675 1.550699,-15.623473 3.95635,-2.045908 9.062356,-1.038314 11.694333,2.307702 6.753338,8.585478 -4.665014,20.064814 -13.245032,13.315771 z"
       id="path1" />
    <g
       id="text1"
       style="font-weight:bold;font-size:90.6667px;line-height:0.75;font-family:'League Spartan';-inkscape-font-specification:'League Spartan Bold';display:inline;fill:#ffffff"
       aria-label="Empowering&#10;People">
      <path
         d="M 82.638332,13.142635 H 120.85435 V 25.019973 H 96.147671 V 37.214644 H 120.62768 V 48.729316 H 96.147671 V 61.10532 H 120.85435 V 72.982658 H 82.638332 Z m 99.688048,21.533342 q 4.21601,0 7.43467,1.768 3.21867,1.722668 5.032,5.349336 1.85867,3.626668 1.85867,9.33867 V 72.982658 H 183.09705 V 53.217317 q 0,-3.898668 -1.17867,-6.301336 -1.17866,-2.402667 -4.66933,-2.402667 -2.08534,0 -3.672,1.088 -1.58667,1.088001 -2.448,3.037335 -0.86134,1.904001 -0.86134,4.578668 v 19.765341 h -12.648 V 53.217317 q 0,-3.898668 -1.31467,-6.301336 -1.26933,-2.402667 -4.53334,-2.402667 -2.08533,0 -3.672,1.088 -1.58666,1.042667 -2.448,2.992001 -0.816,1.904001 -0.816,4.624002 V 72.982658 H 131.14503 V 35.763977 h 13.69067 v 5.304002 q 0.544,-1.405334 2.35734,-2.856001 1.85866,-1.496001 4.57866,-2.493334 2.72001,-1.042667 5.75734,-1.042667 3.30933,0 5.53067,0.997333 2.22133,0.952001 3.62667,2.584001 1.45066,1.632001 2.312,3.536002 0.63467,-1.632001 2.49333,-3.264001 1.904,-1.677334 4.71467,-2.765335 2.856,-1.088 6.12,-1.088 z m 35.90409,57.165355 H 204.58513 V 35.763977 h 13.78134 v 5.440002 q 0.63467,-1.269334 2.40267,-2.765334 1.81333,-1.541334 4.57867,-2.629335 2.81067,-1.133333 6.34667,-1.133333 5.44,0 9.29333,2.674667 3.89867,2.674668 5.98401,7.16267 2.08533,4.442668 2.08533,9.88267 0,5.440003 -2.22133,9.928004 -2.22134,4.442669 -6.25601,7.117336 -3.98933,2.629335 -9.42933,2.629335 -3.89867,0 -6.66401,-1.360001 -2.72,-1.405334 -4.30666,-3.082668 -1.54134,-1.722667 -1.94934,-2.674667 z m 17.36267,-37.445348 q 0,-2.538667 -1.13333,-4.533335 -1.13333,-2.04 -3.08267,-3.173334 -1.904,-1.178667 -4.30667,-1.178667 -2.49333,0 -4.488,1.178667 -1.94933,1.133334 -3.08266,3.173334 -1.13334,1.994668 -1.13334,4.533335 0,2.538668 1.13334,4.578669 1.13333,1.994667 3.08266,3.128001 1.99467,1.133334 4.488,1.133334 2.40267,0 4.30667,-1.133334 1.94934,-1.133334 3.08267,-3.128001 1.13333,-2.040001 1.13333,-4.578669 z m 39.34934,19.674675 q -6.12,0 -10.88,-2.493334 -4.71467,-2.538668 -7.43467,-6.936003 -2.67467,-4.442669 -2.67467,-10.154671 0,-5.712002 2.67467,-10.154671 2.72,-4.488001 7.43467,-7.072002 4.76,-2.584001 10.88,-2.584001 6.12001,0 10.78934,2.584001 4.66934,2.584001 7.29867,7.072002 2.62934,4.442669 2.62934,10.154671 0,5.712002 -2.62934,10.154671 -2.62933,4.397335 -7.29867,6.936003 -4.66933,2.493334 -10.78934,2.493334 z m 0,-11.333338 q 2.35734,0 4.08001,-1.042667 1.72266,-1.042667 2.67466,-2.946668 0.952,-1.904001 0.952,-4.306668 0,-2.448001 -0.952,-4.352002 -0.952,-1.904001 -2.67466,-2.992001 -1.72267,-1.088001 -4.08001,-1.088001 -2.35733,0 -4.12533,1.088001 -1.72267,1.088 -2.72,2.992001 -0.952,1.904001 -0.952,4.352002 0,2.402667 0.952,4.306668 0.99733,1.904001 2.72,2.946668 1.768,1.042667 4.12533,1.042667 z m 56.53075,-11.333338 -8.65867,21.578675 H 310.16655 L 297.83588,35.763977 h 14.64267 l 5.93867,22.485342 8.56801,-21.760008 h 9.06667 l 8.432,21.760008 5.984,-22.485342 h 14.64268 l -12.28534,37.218681 h -12.60267 z m 48.50664,5.893336 q 0.136,1.994667 1.26933,3.536001 1.13333,1.541334 3.128,2.448001 2.04,0.861334 4.80534,0.861334 2.62933,0 4.71467,-0.544 2.13066,-0.544001 3.672,-1.360001 1.58666,-0.816 2.448,-1.677334 l 5.34933,8.52267 q -1.13333,1.224001 -3.21866,2.402668 -2.04,1.133334 -5.39467,1.858667 -3.35467,0.725334 -8.47734,0.725334 -6.16534,0 -10.97067,-2.312001 -4.80534,-2.312001 -7.57067,-6.800003 -2.76533,-4.488002 -2.76533,-10.970671 0,-5.440002 2.35733,-9.792004 2.40267,-4.397335 6.936,-6.936002 4.53334,-2.584001 10.92534,-2.584001 6.07467,0 10.51734,2.221334 4.488,2.221334 6.89067,6.618669 2.448,4.352002 2.448,10.880004 0,0.362667 -0.0453,1.450668 0,1.088 -0.0907,1.450667 z m 14.09867,-7.208003 q -0.0453,-1.450667 -0.77067,-2.856001 -0.72533,-1.450667 -2.176,-2.357334 -1.45067,-0.952001 -3.71733,-0.952001 -2.26667,0 -3.85334,0.906667 -1.54133,0.861334 -2.35733,2.266668 -0.816,1.405334 -0.90667,2.992001 z m 32.68527,22.893342 H 412.98248 V 35.763977 h 13.78133 v 5.757336 h -0.22666 q 0.36266,-1.042667 1.768,-2.629335 1.40533,-1.632 3.944,-2.901334 2.53867,-1.314667 6.21067,-1.314667 2.584,0 4.76,0.816 2.176,0.770667 3.17334,1.496001 l -5.34934,11.197337 q -0.63467,-0.770667 -2.26667,-1.586667 -1.58666,-0.861334 -3.98933,-0.861334 -2.76534,0 -4.57867,1.405334 -1.768,1.405334 -2.62933,3.400002 -0.81601,1.994667 -0.81601,3.762668 z m 23.79998,0 V 35.763977 h 13.78134 v 37.218681 z m 7.072,-44.880017 q -3.264,0 -5.53067,-2.266668 -2.26667,-2.312001 -2.26667,-5.485335 0,-3.173335 2.26667,-5.485336 2.312,-2.357334 5.53067,-2.357334 2.13067,0 3.89867,1.088 1.768,1.042667 2.856,2.810668 1.088,1.768001 1.088,3.944002 0,3.173334 -2.312,5.485335 -2.312,2.266668 -5.53067,2.266668 z m 41.84262,6.573336 q 3.89866,0 7.616,1.586667 3.71733,1.586667 6.12,5.032002 2.40267,3.400001 2.40267,8.976003 V 72.982658 H 501.79041 V 52.537317 q 0,-3.989335 -1.904,-5.984002 -1.90401,-2.040001 -4.98667,-2.040001 -2.04,0 -3.85334,1.088 -1.768,1.042667 -2.90133,2.992001 -1.088,1.904001 -1.088,4.397336 V 72.982658 H 473.27573 V 35.763977 h 13.78134 v 5.485336 q 0.544,-1.496001 2.26666,-2.992002 1.76801,-1.541334 4.39734,-2.538667 2.67467,-1.042667 5.75734,-1.042667 z M 543.17974,92.884 q -3.89867,0 -7.75201,-0.680001 -3.808,-0.68 -7.11733,-2.312001 -3.30934,-1.632 -5.576,-4.488001 l 8.06933,-8.38667 q 1.04267,1.224 2.53867,2.402667 1.54133,1.178667 3.76267,1.949334 2.26667,0.770667 5.48533,0.770667 2.992,0 5.21334,-1.042667 2.22133,-1.042667 3.44533,-3.037334 1.26934,-1.994668 1.26934,-4.850669 v -0.906667 h 13.55467 v 1.722667 q 0,6.165336 -3.08267,10.381338 -3.03733,4.216002 -8.20534,6.346669 -5.168,2.130668 -11.60533,2.130668 z m 9.33867,-19.901342 v -6.029335 q -0.408,0.906667 -2.08534,2.629334 -1.632,1.722667 -4.352,3.128001 -2.72,1.360001 -6.34667,1.360001 -5.44,0 -9.52,-2.629335 -4.08,-2.674667 -6.34667,-7.117336 -2.26667,-4.488001 -2.26667,-9.928004 0,-5.440002 2.26667,-9.88267 2.26667,-4.488002 6.34667,-7.16267 4.08,-2.674667 9.52,-2.674667 3.49067,0 6.12,1.133333 2.62934,1.088001 4.26134,2.629335 1.632,1.496 2.26667,2.765334 v -5.440002 h 13.69067 V 72.982658 Z M 535.1104,54.395984 q 0,2.538668 1.17867,4.578669 1.17866,1.994667 3.128,3.128001 1.99467,1.133334 4.39733,1.133334 2.49334,0 4.39734,-1.133334 1.904,-1.133334 2.992,-3.128001 1.13333,-2.040001 1.13333,-4.578669 0,-2.538667 -1.13333,-4.533335 -1.088,-2.04 -2.992,-3.173334 -1.904,-1.178667 -4.39734,-1.178667 -2.40266,0 -4.39733,1.178667 -1.94934,1.133334 -3.128,3.173334 -1.17867,1.994668 -1.17867,4.533335 z"
         id="path2"
         style="fill:#ffffff" />
      <path
         d="m 82.728999,81.142662 h 21.760011 q 5.75733,0 10.38133,2.04 4.62401,1.994668 7.34401,6.120003 2.76533,4.080001 2.76533,10.245337 0,6.119998 -2.76533,10.426668 -2.72,4.26134 -7.34401,6.52801 -4.624,2.22133 -10.38133,2.22133 h -8.205339 v 22.25868 H 82.728999 Z m 13.554672,26.882678 h 4.442669 q 2.76533,0 4.94133,-0.816 2.22134,-0.816 3.53601,-2.584 1.31466,-1.81334 1.31466,-4.760004 0,-2.992002 -1.31466,-4.714669 -1.31467,-1.768001 -3.53601,-2.538668 -2.176,-0.770667 -4.94133,-0.770667 h -4.442669 z m 44.018649,17.27201 q 0.136,1.99466 1.26934,3.536 1.13333,1.54133 3.128,2.448 2.04,0.86133 4.80533,0.86133 2.62934,0 4.71467,-0.544 2.13067,-0.544 3.672,-1.36 1.58667,-0.816 2.448,-1.67733 l 5.34934,8.52267 q -1.13333,1.224 -3.21867,2.40266 -2.04,1.13334 -5.39467,1.85867 -3.35466,0.72534 -8.47733,0.72534 -6.16534,0 -10.97067,-2.31201 -4.80534,-2.312 -7.57067,-6.8 -2.76534,-4.488 -2.76534,-10.97067 0,-5.44 2.35734,-9.792 2.40266,-4.39734 6.936,-6.93601 4.53333,-2.584 10.92534,-2.584 6.07467,0 10.51733,2.22134 4.48801,2.22133 6.89067,6.61867 2.448,4.352 2.448,10.88 0,0.36267 -0.0453,1.45067 0,1.088 -0.0907,1.45067 z m 14.09868,-7.20801 q -0.0453,-1.45066 -0.77067,-2.856 -0.72533,-1.45067 -2.176,-2.35733 -1.45067,-0.952 -3.71734,-0.952 -2.26666,0 -3.85333,0.90666 -1.54134,0.86134 -2.35734,2.26667 -0.816,1.40534 -0.90666,2.992 z m 39.03193,23.98135 q -6.12,0 -10.88,-2.49334 -4.71467,-2.53867 -7.43467,-6.936 -2.67467,-4.44267 -2.67467,-10.15467 0,-5.712 2.67467,-10.15467 2.72,-4.488 7.43467,-7.07201 4.76,-2.584 10.88,-2.584 6.12001,0 10.78934,2.584 4.66934,2.58401 7.29867,7.07201 2.62933,4.44267 2.62933,10.15467 0,5.712 -2.62933,10.15467 -2.62933,4.39733 -7.29867,6.936 -4.66933,2.49334 -10.78934,2.49334 z m 0,-11.33334 q 2.35734,0 4.08,-1.04267 1.72267,-1.04267 2.67467,-2.94667 0.952,-1.904 0.952,-4.30667 0,-2.448 -0.952,-4.352 -0.952,-1.904 -2.67467,-2.992 -1.72266,-1.088 -4.08,-1.088 -2.35733,0 -4.12533,1.088 -1.72267,1.088 -2.72,2.992 -0.952,1.904 -0.952,4.352 0,2.40267 0.952,4.30667 0.99733,1.904 2.72,2.94667 1.768,1.04267 4.12533,1.04267 z m 41.43474,29.10401 H 221.22233 V 103.764 h 13.78134 v 5.44001 q 0.63467,-1.26934 2.40267,-2.76534 1.81333,-1.54133 4.57867,-2.62933 2.81066,-1.13334 6.34667,-1.13334 5.44,0 9.29333,2.67467 3.89867,2.67467 5.98401,7.16267 2.08533,4.44267 2.08533,9.88267 0,5.44 -2.22133,9.92801 -2.22134,4.44266 -6.25601,7.11733 -3.98933,2.62934 -9.42933,2.62934 -3.89867,0 -6.66401,-1.36001 -2.72,-1.40533 -4.30667,-3.08266 -1.54133,-1.72267 -1.94933,-2.67467 z m 17.36267,-37.44535 q 0,-2.53867 -1.13333,-4.53333 -1.13333,-2.04 -3.08267,-3.17334 -1.904,-1.17867 -4.30667,-1.17867 -2.49333,0 -4.488,1.17867 -1.94933,1.13334 -3.08267,3.17334 -1.13333,1.99466 -1.13333,4.53333 0,2.53867 1.13333,4.57867 1.13334,1.99467 3.08267,3.128 1.99467,1.13333 4.488,1.13333 2.40267,0 4.30667,-1.13333 1.94934,-1.13333 3.08267,-3.128 1.13333,-2.04 1.13333,-4.57867 z m 34.18135,18.58668 H 272.58502 V 78.603994 h 13.82667 z m 19.856,-15.68534 q 0.136,1.99466 1.26934,3.536 1.13333,1.54133 3.128,2.448 2.04,0.86133 4.80533,0.86133 2.62934,0 4.71467,-0.544 2.13067,-0.544 3.672,-1.36 1.58667,-0.816 2.448,-1.67733 l 5.34934,8.52267 q -1.13333,1.224 -3.21867,2.40266 -2.04,1.13334 -5.39467,1.85867 -3.35466,0.72534 -8.47733,0.72534 -6.16534,0 -10.97067,-2.31201 -4.80534,-2.312 -7.57067,-6.8 -2.76534,-4.488 -2.76534,-10.97067 0,-5.44 2.35734,-9.792 2.40266,-4.39734 6.936,-6.93601 4.53333,-2.584 10.92534,-2.584 6.07467,0 10.51733,2.22134 4.48801,2.22133 6.89067,6.61867 2.448,4.352 2.448,10.88 0,0.36267 -0.0453,1.45067 0,1.088 -0.0907,1.45067 z m 14.09868,-7.20801 q -0.0453,-1.45066 -0.77067,-2.856 -0.72533,-1.45067 -2.176,-2.35733 -1.45067,-0.952 -3.71734,-0.952 -2.26666,0 -3.85333,0.90666 -1.54134,0.86134 -2.35734,2.26667 -0.816,1.40534 -0.90666,2.992 z"
         id="path3"
         style="fill:#ffffff" />
    </g>
  </g>
</svg>
